<svg xmlns="http://www.w3.org/2000/svg" width="24" height="24" class="ico-DsFastSelect" viewBox="0 0 24 24"><path fill="currentColor" fill-rule="evenodd" d="M14.6668427,9.00032979 L14.6668427,0.751236781 C14.6668427,-0.00494471149 13.7111197,-0.285787741 13.3294641,0.358242735 L6.25335558,12.2989298 C5.92911189,12.8454863 5.91512313,13.5318295 6.2169778,14.0924567 C6.51883247,14.6530838 7.08925684,15.0001945 7.70784674,14.9996699 L10.3333521,14.9996701 L10.3333521,23.2487631 C10.3333521,24.00493 11.2890452,24.2857842 11.6707165,23.6417811 L18.746825,11.7020939 C19.0708962,11.1550906 19.0847705,10.4690225 18.7831541,9.90847837 C18.4815378,9.34793426 17.9115818,9.00054306 17.2931778,9.00032982 L14.6668427,9.00032979 Z M11.777849,20.5991783 L11.777849,14.2497526 C11.777849,13.8355846 11.4544873,13.4998351 11.0556005,13.4998351 L7.70725685,13.4998351 C7.61171411,13.4999158 7.52415461,13.4466347 7.47782026,13.3605791 C7.43148591,13.2745235 7.43363317,13.1691706 7.48343236,13.0852273 L13.2223458,3.40101054 L13.2223458,9.75024733 C13.2223458,10.1644154 13.5457074,10.5001649 13.9445942,10.5001649 L17.2929379,10.5001649 C17.3879176,10.5001977 17.4756773,10.5536877 17.5221191,10.6399982 C17.5685609,10.7263087 17.5664246,10.8319469 17.5165344,10.9161572 L11.777849,20.5991783 Z"></path></svg>