<svg xmlns="http://www.w3.org/2000/svg" width="20" height="20" class="ico-DsDelete" viewBox="0 0 24 24"><path fill="currentColor" fill-rule="evenodd" d="M14.4,0 C15.7254834,0 16.8,1.0745166 16.8,2.4 L16.8,2.4 L16.8,3.2 L23.2,3.2 C23.607841,3.2 23.9444016,3.50518815 23.9937669,3.8996497 L24,4 C24,4.4418278 23.6418278,4.8 23.2,4.8 L23.2,4.8 L21.536,4.8 L20.1199046,21.7986872 C20.0167099,23.0427379 18.9766246,24 17.728,24 L6.27306667,24 C5.02444211,24 3.98435675,23.0427379 3.88116604,21.7987348 L2.463,4.8 L0.8,4.8 C0.392158954,4.8 0.055598419,4.49481185 0.00623313573,4.1003503 L0,4 C0,3.5581722 0.3581722,3.2 0.8,3.2 L0.8,3.2 L7.2,3.2 L7.2,2.4 C7.2,1.12974508 8.18683903,0.0899787563 9.43568127,0.00553686671 L9.6,0 Z M19.9305777,4.8 L4.06947438,4.8 L5.4756618,21.6661333 C5.51006707,22.0809016 5.85677416,22.4 6.27306667,22.4 L17.728,22.4 C18.1442925,22.4 18.4909996,22.0809016 18.5254049,21.6661333 L19.9305777,4.8 Z M9.6,8.8 C10.0418278,8.8 10.4,9.1581722 10.4,9.6 L10.4,9.6 L10.4,17.6 C10.4,18.0418278 10.0418278,18.4 9.6,18.4 C9.1581722,18.4 8.8,18.0418278 8.8,17.6 L8.8,17.6 L8.8,9.6 C8.8,9.1581722 9.1581722,8.8 9.6,8.8 Z M14.4,8.8 C14.8418278,8.8 15.2,9.1581722 15.2,9.6 L15.2,9.6 L15.2,17.6 C15.2,18.0418278 14.8418278,18.4 14.4,18.4 C13.9581722,18.4 13.6,18.0418278 13.6,17.6 L13.6,17.6 L13.6,9.6 C13.6,9.1581722 13.9581722,8.8 14.4,8.8 Z M14.4,1.6 L9.6,1.6 C9.1581722,1.6 8.8,1.9581722 8.8,2.4 L8.8,2.4 L8.8,3.2 L15.2,3.2 L15.2,2.4 C15.2,1.9581722 14.8418278,1.6 14.4,1.6 L14.4,1.6 Z"></path></svg>